<svg width="91" height="22" viewBox="0 0 91 22" fill="none" xmlns="http://www.w3.org/2000/svg">
<path d="M7.45215 22H2.80859L2.83789 18.5723H7.45215C8.60449 18.5723 9.57617 18.3135 10.3672 17.7959C11.1582 17.2686 11.7539 16.502 12.1543 15.4961C12.5645 14.4902 12.7695 13.2744 12.7695 11.8486V10.8086C12.7695 9.71484 12.6523 8.75293 12.418 7.92285C12.1934 7.09277 11.8564 6.39453 11.4072 5.82812C10.958 5.26172 10.4062 4.83691 9.75195 4.55371C9.09766 4.26074 8.3457 4.11426 7.49609 4.11426H2.7207V0.671875H7.49609C8.92188 0.671875 10.2256 0.916016 11.4072 1.4043C12.5986 1.88281 13.6289 2.57129 14.498 3.46973C15.3672 4.36816 16.0361 5.44238 16.5049 6.69238C16.9834 7.93262 17.2227 9.31445 17.2227 10.8379V11.8486C17.2227 13.3623 16.9834 14.7441 16.5049 15.9941C16.0361 17.2441 15.3672 18.3184 14.498 19.2168C13.6387 20.1055 12.6084 20.7939 11.4072 21.2822C10.2158 21.7607 8.89746 22 7.45215 22ZM5.29883 0.671875V22H0.904297V0.671875H5.29883ZM28.5656 4.31934L22.7648 22H18.092L26.0168 0.671875H28.9904L28.5656 4.31934ZM33.385 22L27.5695 4.31934L27.1008 0.671875H30.1037L38.0725 22H33.385ZM33.1213 14.0605V17.5029H21.8566V14.0605H33.1213ZM48.1557 14.3975H42.7211V10.9697H48.1557C48.9955 10.9697 49.6791 10.833 50.2064 10.5596C50.7338 10.2764 51.1195 9.88574 51.3637 9.3877C51.6078 8.88965 51.7299 8.32812 51.7299 7.70312C51.7299 7.06836 51.6078 6.47754 51.3637 5.93066C51.1195 5.38379 50.7338 4.94434 50.2064 4.6123C49.6791 4.28027 48.9955 4.11426 48.1557 4.11426H44.2445V22H39.85V0.671875H48.1557C49.8256 0.671875 51.2562 0.974609 52.4477 1.58008C53.6488 2.17578 54.5668 3.00098 55.2016 4.05566C55.8363 5.11035 56.1537 6.31641 56.1537 7.67383C56.1537 9.05078 55.8363 10.2422 55.2016 11.248C54.5668 12.2539 53.6488 13.0303 52.4477 13.5771C51.2562 14.124 49.8256 14.3975 48.1557 14.3975ZM65.2262 4.31934L59.4254 22H54.7525L62.6773 0.671875H65.651L65.2262 4.31934ZM70.0455 22L64.2301 4.31934L63.7613 0.671875H66.7643L74.733 22H70.0455ZM69.7818 14.0605V17.5029H58.5172V14.0605H69.7818ZM84.2303 0.671875V22H79.8504V0.671875H84.2303ZM90.7928 0.671875V4.11426H73.3904V0.671875H90.7928Z" fill="url(#paint0_linear_13_2662)"/>
<defs>
<linearGradient id="paint0_linear_13_2662" x1="-1" y1="10" x2="120" y2="10" gradientUnits="userSpaceOnUse">
<stop stop-color="#357D5D"/>
<stop offset="1" stop-color="#95D5B2"/>
</linearGradient>
</defs>
</svg>
