<svg width="19" height="19" viewBox="0 0 19 19" fill="none" xmlns="http://www.w3.org/2000/svg">
<path d="M0.875 3.04102C0.875 1.85015 1.84039 0.884766 3.03125 0.884766H5.9925C7.18336 0.884766 8.14875 1.85015 8.14875 3.04102V6.00227C8.14875 7.19313 7.18336 8.15852 5.9925 8.15852H3.03125C1.84039 8.15852 0.875 7.19313 0.875 6.00227V3.04102Z" fill="#081C15"/>
<path d="M10.8512 3.04102C10.8512 1.85015 11.8166 0.884766 13.0075 0.884766H15.9687C17.1596 0.884766 18.125 1.85015 18.125 3.04102V6.00227C18.125 7.19313 17.1596 8.15852 15.9687 8.15852H13.0075C11.8166 8.15852 10.8512 7.19313 10.8512 6.00227V3.04102Z" fill="#081C15"/>
<path d="M0.875 13.0077C0.875 11.8168 1.84039 10.8514 3.03125 10.8514H5.9925C7.18336 10.8514 8.14875 11.8168 8.14875 13.0077V15.9689C8.14875 17.1598 7.18336 18.1252 5.9925 18.1252H3.03125C1.84039 18.1252 0.875 17.1598 0.875 15.9689V13.0077Z" fill="#081C15"/>
<path d="M10.8512 13.0077C10.8512 11.8168 11.8166 10.8514 13.0075 10.8514H15.9687C17.1596 10.8514 18.125 11.8168 18.125 13.0077V15.9689C18.125 17.1598 17.1596 18.1252 15.9687 18.1252H13.0075C11.8166 18.1252 10.8512 17.1598 10.8512 15.9689V13.0077Z" fill="#081C15"/>
</svg>
