<svg width="36" height="35" viewBox="0 0 36 35" fill="none" xmlns="http://www.w3.org/2000/svg">
<rect width="35.8687" height="34.9054" rx="7.50769" fill="white"/>
<path fill-rule="evenodd" clip-rule="evenodd" d="M13.1726 9.81657C12.661 9.31223 12.661 8.49453 13.1726 7.9902L16.9802 4.23665C17.4918 3.73231 18.3213 3.73231 18.8329 4.23665L22.6405 7.9902C23.1521 8.49453 23.1521 9.31223 22.6405 9.81657L18.8329 13.5701C18.3213 14.0744 17.4918 14.0744 16.9802 13.5701L13.1726 9.81657ZM17.2084 17.9203C16.9526 17.6682 16.9526 17.2593 17.2084 17.0071L17.4612 16.7579C17.7171 16.5057 18.1318 16.5057 18.3876 16.7579L18.6405 17.0071C18.8963 17.2593 18.8963 17.6682 18.6405 17.9203L18.3876 18.1696C18.1318 18.4218 17.7171 18.4218 17.4612 18.1696L17.2084 17.9203ZM22.1585 16.5699C21.6469 17.0742 21.6469 17.8919 22.1585 18.3963L25.9662 22.1498C26.4778 22.6542 27.3072 22.6542 27.8188 22.1498L31.6265 18.3963C32.1381 17.8919 32.1381 17.0742 31.6265 16.5699L27.8188 12.8164C27.3072 12.312 26.4778 12.312 25.9662 12.8164L22.1585 16.5699ZM4.24226 18.3866C3.73065 17.8823 3.73065 17.0646 4.24226 16.5602L8.04988 12.8067C8.56149 12.3023 9.39096 12.3023 9.90257 12.8067L13.7102 16.5602C14.2218 17.0646 14.2218 17.8823 13.7102 18.3866L9.90257 22.1401C9.39096 22.6445 8.56149 22.6445 8.04988 22.1401L4.24226 18.3866ZM13.1726 25.0885C12.661 25.5928 12.661 26.4105 13.1726 26.9149L16.9802 30.6684C17.4918 31.1728 18.3213 31.1728 18.8329 30.6684L22.6405 26.9149C23.1521 26.4105 23.1521 25.5928 22.6405 25.0885L18.8329 21.335C18.3213 20.8306 17.4918 20.8306 16.9802 21.335L13.1726 25.0885Z" fill="#2D6A4F"/>
</svg>
